<svg width="52" height="52" viewBox="0 0 52 52" fill="none" xmlns="http://www.w3.org/2000/svg">
<g clip-path="url(#clip0_1741_268)">
<path fill-rule="evenodd" clip-rule="evenodd" d="M26 52C29.4144 52 32.7953 51.3275 35.9498 50.0209C39.1042 48.7142 41.9705 46.7991 44.3848 44.3848C46.7991 41.9705 48.7142 39.1042 50.0209 35.9498C51.3275 32.7953 52 29.4144 52 26C52 22.5856 51.3275 19.2047 50.0209 16.0502C48.7142 12.8958 46.7991 10.0295 44.3848 7.61522C41.9705 5.2009 39.1042 3.28575 35.9498 1.97913C32.7953 0.67251 29.4144 -5.08781e-08 26 0C19.1044 1.02753e-07 12.4912 2.73928 7.61522 7.61522C2.73928 12.4912 0 19.1044 0 26C0 32.8956 2.73928 39.5088 7.61522 44.3848C12.4912 49.2607 19.1044 52 26 52ZM34.4162 4.23059C35.4295 5.31991 36.3443 6.58937 37.1465 7.98831C38.6186 10.5357 39.767 13.5897 40.5101 16.9674C41.6792 17.2602 42.7732 17.5867 43.7921 17.947C45.6724 18.6141 47.3247 19.4022 48.6335 20.3114C47.7194 16.6907 45.9517 13.3415 43.4783 10.5439C41.0048 7.74626 37.8975 5.58148 34.4162 4.23059ZM48.9713 30.1152C47.6118 31.1257 45.8385 31.9955 43.7921 32.7189C42.8576 33.0491 41.8575 33.3512 40.7916 33.6252C40.0766 37.5659 38.8213 41.1125 37.1493 44.0117C36.3812 45.3623 35.4645 46.6227 34.4162 47.7694C38.1526 46.322 41.4539 43.9378 44.0029 40.8461C46.5519 37.7544 48.2628 34.059 48.9713 30.1152ZM17.5867 47.7694C16.5373 46.6228 15.6196 45.3624 14.8507 44.0117C13.1816 41.1125 11.9234 37.5659 11.2084 33.6252C10.1957 33.3661 9.19464 33.0637 8.20786 32.7189C6.16152 31.9955 4.38822 31.1257 3.02869 30.1152C3.73718 34.059 5.44813 37.7544 7.99711 40.8461C10.5461 43.9378 13.8502 46.322 17.5867 47.7694ZM3.36365 20.3085C4.67251 19.4022 6.32478 18.6141 8.20504 17.947C9.22399 17.5885 10.318 17.262 11.4871 16.9674C12.2302 13.5897 13.3786 10.5357 14.8479 7.98831C15.6159 6.63772 16.5327 5.37731 17.581 4.23059C14.101 5.58195 10.9951 7.74662 8.52265 10.5437C6.05024 13.3408 4.28322 16.689 3.36928 20.3085M34.8384 9.31688C35.9896 11.3154 36.9382 13.691 37.6222 16.3425C34.2257 15.7306 30.7849 15.3974 27.3342 15.3461V2.93299C30.087 3.46779 32.7329 5.66331 34.8384 9.31688ZM38.2273 19.1798C34.6403 18.4541 30.9936 18.063 27.3342 18.0117V32.6541C31.4072 32.5753 35.193 32.139 38.4385 31.4438C38.6768 29.6949 38.7969 27.8803 38.7987 26C38.7987 23.6215 38.5989 21.3331 38.2273 19.1798ZM24.6658 2.93017V15.3433C21.2159 15.3957 17.7761 15.7298 14.3806 16.3425C15.0618 13.691 16.0132 11.3125 17.1616 9.31688C19.2671 5.66613 21.913 3.46779 24.6658 2.93017ZM24.6658 18.0117C21.0064 18.063 17.3597 18.4541 13.7727 19.1798C13.3889 21.4329 13.1977 23.7145 13.2013 26C13.2013 27.8774 13.3251 29.6986 13.5615 31.4409C16.807 32.139 20.5928 32.5753 24.6658 32.6513V18.0117ZM9.09733 20.4605C9.68843 20.2541 10.3105 20.0571 10.9635 19.8694C10.4516 23.4743 10.393 27.1291 10.789 30.7485C10.1979 30.574 9.63401 30.3929 9.09733 30.2053C6.9581 29.4481 5.32554 28.5811 4.2503 27.6832C3.16661 26.7797 2.80069 25.9803 2.80069 25.3329C2.80069 24.6855 3.16661 23.8861 4.2503 22.9826C5.32554 22.0847 6.9581 21.2177 9.09733 20.4634M17.1616 42.6859C15.8134 40.3441 14.7409 37.4786 14.0513 34.2642C17.2545 34.8806 20.8574 35.2521 24.6658 35.3225V49.0726C21.913 48.535 19.2671 46.3395 17.1616 42.6859ZM27.3342 49.0698V35.3169C30.8959 35.2646 34.4468 34.9105 37.9487 34.2585C37.2619 37.4758 36.1866 40.3384 34.8384 42.6803C32.7329 46.3311 30.087 48.5322 27.3342 49.0698ZM41.4643 26C41.4643 27.6213 41.3799 29.2041 41.211 30.7485C41.8021 30.5759 42.366 30.3948 42.9027 30.2053C45.0419 29.4481 46.6745 28.5811 47.7497 27.6832C48.8334 26.7797 49.1993 25.9803 49.1993 25.3329C49.1993 24.6855 48.8334 23.8861 47.7497 22.9826C46.6745 22.0847 45.0419 21.2177 42.9027 20.4634C42.3116 20.2551 41.6895 20.0571 41.0365 19.8694C41.318 21.8398 41.4671 23.8917 41.4671 26" fill="#ED8C18"/>
</g>
<defs>
<clipPath id="clip0_1741_268">
<rect width="52" height="52" fill="white"/>
</clipPath>
</defs>
</svg>
